<?xml version="1.0" standalone="no"?>
<!DOCTYPE svg PUBLIC "-//W3C//DTD SVG 20010904//EN"
 "http://www.w3.org/TR/2001/REC-SVG-20010904/DTD/svg10.dtd">
<svg version="1.0" xmlns="http://www.w3.org/2000/svg"
 width="512.000000pt" height="512.000000pt" viewBox="0 0 512.000000 512.000000"
 preserveAspectRatio="xMidYMid meet">
<metadata>
Created by potrace 1.15, written by Peter Selinger 2001-2017
</metadata>
<g transform="translate(0.000000,512.000000) scale(0.100000,-0.100000)"
fill="#000000" stroke="none">
<path d="M2395 4730 c-530 -44 -996 -260 -1371 -634 -417 -418 -637 -948 -637
-1536 0 -588 220 -1118 637 -1536 418 -417 948 -637 1536 -637 588 0 1118 220
1536 637 417 418 637 948 637 1536 0 588 -220 1118 -637 1536 -230 229 -482
392 -780 504 -274 103 -636 154 -921 130z m472 -509 c225 -42 436 -128 638
-262 152 -101 353 -302 454 -454 134 -203 219 -411 263 -643 31 -166 31 -438
0 -604 -44 -232 -129 -440 -263 -643 -101 -152 -302 -353 -454 -454 -203 -134
-411 -219 -643 -263 -166 -31 -438 -31 -604 0 -232 44 -440 129 -643 263 -152
101 -353 302 -454 454 -134 203 -219 411 -263 643 -31 166 -31 438 0 604 44
232 129 440 263 643 101 152 302 353 454 454 241 160 501 253 790 285 92 10
353 -3 462 -23z"/>
</g>
</svg>
